HIERARCHY
ROOT joint_Root
{
	OFFSET 0.0 0.0 0.0
	CHANNELS 6 Xposition Yposition Zposition Zrotation Xrotation Yrotation 
	JOINT Hips
	{
		OFFSET 4.5925 91.4895 -427.239
		CHANNELS 6 Xposition Yposition Zposition Zrotation Xrotation Yrotation 
		JOINT Spine
		{
			OFFSET 15.7357 0.0 0.0
			CHANNELS 6 Xposition Yposition Zposition Zrotation Xrotation Yrotation 
			JOINT Chest
			{
				OFFSET 8.98455 -0.406207 0.0
				CHANNELS 6 Xposition Yposition Zposition Zrotation Xrotation Yrotation 
				JOINT Neck
				{
					OFFSET 16.3773 0.0 0.0
					CHANNELS 6 Xposition Yposition Zposition Zrotation Xrotation Yrotation 
					JOINT Head
					{
						OFFSET 6.45672 0.0 0.0
						CHANNELS 6 Xposition Yposition Zposition Zrotation Xrotation Yrotation 
						End Site
						{
							OFFSET 0.0 0.0 0.0
						}
					}
				}
				JOINT Shoulder_L
				{
					OFFSET 12.9942 -0.242716 4.98039
					CHANNELS 6 Xposition Yposition Zposition Zrotation Xrotation Yrotation 
					JOINT UpperArm_L
					{
						OFFSET 5.34809 0.0 0.0
						CHANNELS 6 Xposition Yposition Zposition Zrotation Xrotation Yrotation 
						JOINT LowerArm_L
						{
							OFFSET 24.3286 1.87007e-05 0.0
							CHANNELS 6 Xposition Yposition Zposition Zrotation Xrotation Yrotation 
							JOINT Hand_L
							{
								OFFSET 22.2916 0.0 0.0
								CHANNELS 6 Xposition Yposition Zposition Zrotation Xrotation Yrotation 
								End Site
								{
									OFFSET 0.0 0.0 0.0
								}
							}
						}
					}
				}
				JOINT Shoulder_R
				{
					OFFSET 12.9945 -0.242716 -4.98039
					CHANNELS 6 Xposition Yposition Zposition Zrotation Xrotation Yrotation 
					JOINT UpperArm_R
					{
						OFFSET -5.34813 0.0 0.0
						CHANNELS 6 Xposition Yposition Zposition Zrotation Xrotation Yrotation 
						JOINT LowerArm_R
						{
							OFFSET -24.3289 0.000322201 0.0
							CHANNELS 6 Xposition Yposition Zposition Zrotation Xrotation Yrotation 
							JOINT Hand_R
							{
								OFFSET -22.2915 -0.000108084 0.0
								CHANNELS 6 Xposition Yposition Zposition Zrotation Xrotation Yrotation 
								End Site
								{
									OFFSET 0.0 0.0 0.0
								}
							}
						}
					}
				}
			}
		}
		JOINT UpperLeg_L
		{
			OFFSET -2.19248 -6.46944 0.0
			CHANNELS 6 Xposition Yposition Zposition Zrotation Xrotation Yrotation 
			JOINT LowerLeg_L
			{
				OFFSET 39.0811 0.0 -1.23785e-05
				CHANNELS 6 Xposition Yposition Zposition Zrotation Xrotation Yrotation 
				JOINT Foot_L
				{
					OFFSET 40.9854 0.0 -1.26872e-05
					CHANNELS 6 Xposition Yposition Zposition Zrotation Xrotation Yrotation 
					JOINT Toes_L
					{
						OFFSET 11.7543 0.0 0.0
						CHANNELS 6 Xposition Yposition Zposition Zrotation Xrotation Yrotation 
						End Site
						{
							OFFSET 0.0 0.0 0.0
						}
					}
				}
			}
		}
		JOINT UpperLeg_R
		{
			OFFSET -2.19251 6.46944 0.0
			CHANNELS 6 Xposition Yposition Zposition Zrotation Xrotation Yrotation 
			JOINT LowerLeg_R
			{
				OFFSET -39.0811 -0.00228153 -0.0401928
				CHANNELS 6 Xposition Yposition Zposition Zrotation Xrotation Yrotation 
				JOINT Foot_R
				{
					OFFSET -40.9854 0.0 0.0
					CHANNELS 6 Xposition Yposition Zposition Zrotation Xrotation Yrotation 
					JOINT Toes_R
					{
						OFFSET -11.7543 0.0 0.0
						CHANNELS 6 Xposition Yposition Zposition Zrotation Xrotation Yrotation 
						End Site
						{
							OFFSET 0.0 0.0 0.0
						}
					}
				}
			}
		}
	}
}
MOTION
Frames:	4
Frame Time:	0.0333333
0.000000 0.000000 0.000000 0.000000 0.000000 -0.000000 -0.853044 90.873600 2.873840 92.109300 -3.930310 10.838600 15.735700 0.000005 -0.000001 81.670800 83.474200 -81.952700 8.984550 -0.406207 -0.000000 5.145580 -1.880240 -0.478726 16.377300 -0.000001 -0.000001 31.956300 -5.177710 1.452390 6.456720 -0.000001 -0.000000 16.438100 -4.696260 8.370830 12.994200 -0.242716 4.980390 -86.196800 -7.988590 -64.437100 5.348090 -0.000007 -0.000001 -51.994300 -52.521400 -78.038500 24.328600 0.000019 0.000005 8.706180 15.581900 -29.686600 22.291600 -0.000001 0.000005 9.435440 5.250150 1.426020 12.994500 -0.242716 -4.980390 92.091400 -5.852390 -70.295200 -5.348130 -0.000001 -0.000004 -36.393400 -51.637400 -63.422700 -24.328900 0.000322 -0.000009 2.528270 4.565340 -29.029800 -22.291500 -0.000108 -0.000004 21.641200 5.417610 -3.519920 -2.192480 -6.469440 -0.000000 -176.120000 -16.138400 5.253190 39.081100 -0.000007 -0.000012 -0.164110 0.325088 26.785700 40.985400 -0.000006 -0.000013 1.051440 7.922770 -70.818600 11.754300 -0.000000 0.000003 -0.000208 -0.001915 -16.649700 -2.192510 6.469440 -0.000001 170.302000 19.239900 -175.572000 -39.081100 -0.002282 -0.040193 -0.201751 0.361814 29.542100 -40.985400 0.000008 0.000006 3.963880 13.351300 -72.939100 -11.754300 -0.000006 -0.000006 -0.001415 -0.021137 -17.432600
0.000000 0.000000 0.000000 0.000000 0.000000 -0.000000 -1.152310 90.895000 3.008100 91.936700 -3.913040 10.788300 15.735700 0.000005 -0.000001 81.566200 83.438500 -81.756500 8.984550 -0.406207 -0.000000 5.214260 -1.916360 -0.292921 16.377300 -0.000001 -0.000001 32.276000 -5.108050 1.395880 6.456720 -0.000001 -0.000000 16.569200 -4.649900 8.491130 12.994200 -0.242716 4.980390 -86.214200 -7.904040 -64.303300 5.348090 -0.000007 -0.000001 -55.217900 -54.320800 -78.798900 24.328600 0.000019 0.000005 8.400530 16.544800 -27.411100 22.291600 -0.000001 0.000005 10.291300 5.222200 2.154190 12.994500 -0.242716 -4.980390 92.059900 -5.744370 -70.233800 -5.348130 -0.000001 -0.000004 -37.772500 -52.773500 -62.854100 -24.328900 0.000322 -0.000009 2.542350 4.805350 -27.935600 -22.291500 -0.000108 -0.000004 21.749900 5.401460 -2.985040 -2.192480 -6.469440 -0.000000 -175.730000 -16.008200 5.397280 39.081100 -0.000007 -0.000012 -0.169138 0.337322 26.630000 40.985400 -0.000006 -0.000013 0.800949 7.936110 -70.785400 11.754300 -0.000000 0.000003 -0.000208 -0.001916 -16.649800 -2.192510 6.469440 -0.000001 170.512000 19.613500 -175.252000 -39.081100 -0.002282 -0.040193 -0.210002 0.382032 29.176900 -40.985400 0.000008 0.000006 4.005240 13.660600 -72.909400 -11.754300 -0.000006 -0.000006 -0.001324 -0.019915 -17.382900
0.000000 0.000000 0.000000 0.000000 0.000000 -0.000000 -1.466700 90.908700 3.154390 91.719200 -3.902360 10.712600 15.735700 0.000005 -0.000001 81.488100 83.427200 -81.573700 8.984550 -0.406207 -0.000000 5.235660 -1.939640 -0.082373 16.377300 -0.000001 -0.000001 32.593800 -5.062290 1.401980 6.456720 -0.000001 -0.000000 16.711900 -4.662870 8.564790 12.994200 -0.242716 4.980390 -86.214900 -7.872630 -64.218700 5.348090 -0.000007 -0.000001 -57.508700 -55.871900 -79.034300 24.328600 0.000019 0.000005 7.971910 16.876400 -25.751900 22.291600 -0.000001 0.000005 10.949800 5.196640 2.801720 12.994500 -0.242716 -4.980390 92.036200 -5.651220 -70.147500 -5.348130 -0.000001 -0.000004 -39.529900 -53.850300 -63.008400 -24.328900 0.000322 -0.000009 2.580700 5.040460 -27.167700 -22.291500 -0.000108 -0.000004 21.900300 5.390500 -2.631970 -2.192480 -6.469440 -0.000000 -175.280000 -15.915000 5.497110 39.081100 -0.000007 -0.000012 -0.173763 0.347963 26.536400 40.985400 -0.000006 -0.000013 0.557980 7.989850 -70.789100 11.754300 -0.000000 0.000003 -0.000223 -0.002026 -16.653800 -2.192510 6.469440 -0.000001 170.819000 19.891600 -174.958000 -39.081100 -0.002282 -0.040193 -0.222102 0.410006 28.800700 -40.985400 0.000008 0.000006 3.952310 13.847100 -72.853000 -11.754300 -0.000006 -0.000006 -0.001357 -0.020361 -17.401100
0.000000 0.000000 0.000000 0.000000 0.000000 -0.000000 -1.808420 90.913800 3.318950 91.496900 -3.805710 10.812700 15.735700 0.000005 -0.000001 81.428000 83.378300 -81.429300 8.984550 -0.406207 -0.000000 5.331840 -1.969540 0.089045 16.377300 -0.000001 -0.000001 32.969300 -5.061290 1.469030 6.456720 -0.000001 -0.000000 16.720800 -4.712070 8.718370 12.994200 -0.242716 4.980390 -86.221600 -7.819060 -64.106100 5.348090 -0.000007 -0.000001 -58.660500 -56.912500 -79.039500 24.328600 0.000019 0.000005 7.665250 17.228400 -24.437500 22.291600 -0.000001 0.000005 11.575400 5.176690 3.296510 12.994500 -0.242716 -4.980390 92.020600 -5.580450 -70.058400 -5.348130 -0.000001 -0.000004 -41.084900 -54.730500 -63.415100 -24.328900 0.000322 -0.000009 2.578760 5.136440 -26.714900 -22.291500 -0.000108 -0.000004 22.188200 5.375590 -2.160560 -2.192480 -6.469440 -0.000000 -174.772000 -15.692600 5.775680 39.081100 -0.000007 -0.000012 -0.178822 0.359307 26.459100 40.985400 -0.000006 -0.000013 0.302135 8.082510 -70.811500 11.754300 -0.000000 0.000003 -0.000215 -0.001964 -16.651500 -2.192510 6.469440 -0.000001 170.981000 20.331800 -174.393000 -39.081100 -0.002282 -0.040193 -0.238411 0.447467 28.377700 -40.985400 0.000008 0.000006 3.750620 14.240700 -72.765800 -11.754300 -0.000006 -0.000006 -0.001227 -0.018584 -17.328800
